<svg width="185" height="70" viewBox="0 0 185 70" fill="none" xmlns="http://www.w3.org/2000/svg">
<path d="M177.101 48.7078C177.827 47.4892 178.784 46.5462 179.974 45.8788C181.193 45.1824 182.629 44.8342 184.283 44.8342V49.97H183.021C181.076 49.97 179.597 50.4633 178.581 51.4498C177.595 52.4364 177.101 54.1483 177.101 56.5856V69.2075H172.14V45.2259H177.101V48.7078Z" fill="black"/>
<path d="M167.257 56.6291C167.257 57.5286 167.199 58.3411 167.083 59.0665H148.759C148.904 60.9815 149.615 62.5194 150.892 63.68C152.169 64.8406 153.735 65.4209 155.592 65.4209C158.262 65.4209 160.148 64.3038 161.251 62.0696H166.604C165.879 64.2748 164.558 66.0883 162.643 67.5101C160.757 68.9028 158.407 69.5992 155.592 69.5992C153.3 69.5992 151.24 69.0914 149.412 68.0759C147.613 67.0313 146.191 65.5805 145.147 63.7235C144.131 61.8375 143.623 59.6613 143.623 57.195C143.623 54.7286 144.117 52.5669 145.103 50.7099C146.119 48.8239 147.526 47.3731 149.325 46.3576C151.153 45.342 153.242 44.8342 155.592 44.8342C157.856 44.8342 159.872 45.3275 161.642 46.314C163.412 47.3006 164.79 48.6933 165.777 50.4923C166.764 52.2623 167.257 54.3079 167.257 56.6291ZM162.077 55.0623C162.048 53.2343 161.396 51.769 160.119 50.6664C158.842 49.5638 157.261 49.0125 155.375 49.0125C153.663 49.0125 152.198 49.5638 150.979 50.6664C149.76 51.74 149.035 53.2053 148.803 55.0623H162.077Z" fill="black"/>
<path d="M129.417 44.8343C131.245 44.8343 132.87 45.226 134.291 46.0094C135.742 46.7928 136.874 47.9535 137.686 49.4913C138.528 51.0291 138.948 52.8861 138.948 55.0623V69.2075H134.03V55.8022C134.03 53.6551 133.493 52.0157 132.42 50.8841C131.346 49.7234 129.881 49.1431 128.024 49.1431C126.167 49.1431 124.687 49.7234 123.585 50.8841C122.511 52.0157 121.974 53.6551 121.974 55.8022V69.2075H117.012V37H121.974V48.0115C122.816 46.9959 123.875 46.2125 125.151 45.6612C126.457 45.1099 127.879 44.8343 129.417 44.8343Z" fill="black"/>
<path d="M89.2613 57.195C89.2613 54.7286 89.7546 52.5669 90.7411 50.7099C91.7567 48.8239 93.1494 47.3731 94.9194 46.3576C96.6893 45.342 98.7204 44.8342 101.013 44.8342C103.914 44.8342 106.308 45.5306 108.194 46.9234C110.109 48.2871 111.4 50.2457 112.068 52.7991H106.714C106.279 51.6094 105.583 50.6809 104.625 50.0135C103.668 49.3462 102.463 49.0125 101.013 49.0125C98.9816 49.0125 97.3567 49.7379 96.138 51.1887C94.9484 52.6105 94.3536 54.6125 94.3536 57.195C94.3536 59.7774 94.9484 61.794 96.138 63.2447C97.3567 64.6955 98.9816 65.4209 101.013 65.4209C103.885 65.4209 105.786 64.1587 106.714 61.6344H112.068C111.371 64.0717 110.066 66.0158 108.151 67.4665C106.236 68.8883 103.856 69.5992 101.013 69.5992C98.7204 69.5992 96.6893 69.0914 94.9194 68.0759C93.1494 67.0313 91.7567 65.5805 90.7411 63.7235C89.7546 61.8375 89.2613 59.6613 89.2613 57.195Z" fill="black"/>
<path d="M80.51 49.2736V62.5484C80.51 63.4478 80.7131 64.1007 81.1193 64.5069C81.5546 64.8841 82.28 65.0727 83.2955 65.0727H86.3422V69.2075H82.425C80.1908 69.2075 78.4789 68.6852 77.2892 67.6406C76.0996 66.5961 75.5048 64.8986 75.5048 62.5484V49.2736H72.6757V45.2259H75.5048V39.2632H80.51V45.2259H86.3422V49.2736H80.51Z" fill="black"/>
<path d="M43.5699 57.1079C43.5699 54.6996 44.0632 52.5669 45.0497 50.7099C46.0653 48.8529 47.429 47.4166 49.141 46.4011C50.8819 45.3565 52.797 44.8342 54.8861 44.8342C56.7721 44.8342 58.4115 45.2114 59.8043 45.9658C61.226 46.6912 62.3577 47.6052 63.1991 48.7078V45.2259H68.2043V69.2075H63.1991V65.6386C62.3577 66.7702 61.2115 67.7132 59.7607 68.4676C58.31 69.222 56.6561 69.5992 54.799 69.5992C52.7389 69.5992 50.8529 69.0769 49.141 68.0324C47.429 66.9588 46.0653 65.479 45.0497 63.5929C44.0632 61.6779 43.5699 59.5162 43.5699 57.1079ZM63.1991 57.195C63.1991 55.5411 62.8509 54.1048 62.1546 52.8861C61.4872 51.6674 60.6022 50.7389 59.4996 50.1006C58.397 49.4622 57.2074 49.1431 55.9307 49.1431C54.654 49.1431 53.4643 49.4622 52.3617 50.1006C51.2591 50.7099 50.3596 51.6239 49.6633 52.8426C48.9959 54.0322 48.6622 55.454 48.6622 57.1079C48.6622 58.7618 48.9959 60.2126 49.6633 61.4603C50.3596 62.708 51.2591 63.6655 52.3617 64.3328C53.4933 64.9712 54.683 65.2904 55.9307 65.2904C57.2074 65.2904 58.397 64.9712 59.4996 64.3328C60.6022 63.6945 61.4872 62.766 62.1546 61.5473C62.8509 60.2996 63.1991 58.8489 63.1991 57.195Z" fill="black"/>
<path d="M29.0303 44.8342C30.9163 44.8342 32.5992 45.2259 34.079 46.0094C35.5879 46.7928 36.763 47.9534 37.6045 49.4913C38.4749 51.0291 38.9102 52.8861 38.9102 55.0623V69.2075H33.992V55.8022C33.992 53.655 33.4552 52.0156 32.3816 50.884C31.308 49.7234 29.8427 49.1431 27.9857 49.1431C26.1287 49.1431 24.6489 49.7234 23.5463 50.884C22.4727 52.0156 21.9359 53.655 21.9359 55.8022V69.2075H17.0178V55.8022C17.0178 53.655 16.481 52.0156 15.4074 50.884C14.3338 49.7234 12.8685 49.1431 11.0115 49.1431C9.15448 49.1431 7.67468 49.7234 6.57208 50.884C5.49849 52.0156 4.9617 53.655 4.9617 55.8022V69.2075H0V45.2259H4.9617V47.9679C5.77414 46.9814 6.8042 46.2125 8.05188 45.6612C9.29956 45.1099 10.6343 44.8342 12.0561 44.8342C13.9711 44.8342 15.683 45.2404 17.1919 46.0529C18.7007 46.8653 19.8613 48.0405 20.6738 49.5783C21.3991 48.1275 22.5308 46.9814 24.0686 46.1399C25.6064 45.2695 27.2603 44.8342 29.0303 44.8342Z" fill="black"/>
<path d="M151.963 11.7078C152.689 10.4892 153.646 9.54616 154.836 8.8788C156.055 8.18242 157.491 7.83423 159.145 7.83423V12.97H157.883C155.939 12.97 154.459 13.4633 153.443 14.4498C152.457 15.4364 151.963 17.1483 151.963 19.5856V32.2075H147.002V8.22594H151.963V11.7078Z" fill="black"/>
<path d="M140.455 8.22595V32.2075H135.493V29.3785C134.71 30.365 133.68 31.1484 132.403 31.7287C131.156 32.28 129.821 32.5557 128.399 32.5557C126.513 32.5557 124.816 32.164 123.307 31.3806C121.827 30.5971 120.652 29.4365 119.781 27.8987C118.94 26.3608 118.519 24.5038 118.519 22.3276V8.22595H123.437V21.5877C123.437 23.7349 123.974 25.3888 125.048 26.5494C126.121 27.681 127.587 28.2468 129.444 28.2468C131.301 28.2468 132.766 27.681 133.84 26.5494C134.942 25.3888 135.493 23.7349 135.493 21.5877V8.22595H140.455Z" fill="black"/>
<path d="M84.4677 0V32.2075H79.506V0H84.4677Z" fill="black"/>
<path d="M24 20.195C24 17.7286 24.4933 15.5669 25.4798 13.7099C26.4954 11.8239 27.8881 10.3731 29.6581 9.35756C31.428 8.342 33.4592 7.83423 35.7514 7.83423C38.653 7.83423 41.0468 8.53061 42.9328 9.92336C44.8478 11.2871 46.139 13.2457 46.8064 15.7991H41.453C41.0178 14.6094 40.3214 13.6809 39.3639 13.0135C38.4063 12.3462 37.2022 12.0125 35.7514 12.0125C33.7203 12.0125 32.0954 12.7379 30.8767 14.1887C29.6871 15.6105 29.0923 17.6126 29.0923 20.195C29.0923 22.7774 29.6871 24.794 30.8767 26.2447C32.0954 27.6955 33.7203 28.4209 35.7514 28.4209C38.624 28.4209 40.5245 27.1587 41.453 24.6344H46.8064C46.11 27.0717 44.8043 29.0158 42.8893 30.4665C40.9742 31.8883 38.5949 32.5992 35.7514 32.5992C33.4592 32.5992 31.428 32.0914 29.6581 31.0759C27.8881 30.0313 26.4954 28.5805 25.4798 26.7235C24.4933 24.8375 24 22.6613 24 20.195Z" fill="black"/>
<circle cx="62.4256" cy="20.0647" r="12.8571" fill="#AFD802"/>
<circle cx="101.14" cy="20.0647" r="12.8571" fill="#C370F6"/>
</svg>
