<svg width="29" height="28" viewBox="0 0 29 28" fill="none" xmlns="http://www.w3.org/2000/svg">
<rect width="29" height="28" fill="#1E1E1E"/>
<g id="Start">
<rect width="360" height="640" transform="translate(-267 -454)" fill="white"/>
<g id="Frame 45">
<g id="Frame 34">
<g id="Frame 33">
<g id="Frame 32">
<rect x="-13.1429" y="-14" width="55" height="55" rx="15.7143" fill="#F5F5F5"/>
<g id="solar:infinity-bold">
<path id="Vector" fill-rule="evenodd" clip-rule="evenodd" d="M8.94941 8.88013C7.65786 8.88013 6.41921 9.39319 5.50594 10.3065C4.59268 11.2197 4.07962 12.4584 4.07962 13.7499C4.07962 15.0415 4.59268 16.2801 5.50594 17.1934C6.41921 18.1066 7.65786 18.6197 8.94941 18.6197C9.63347 18.6197 10.1468 18.4971 10.5616 18.2943C10.9764 18.0926 11.3396 17.7878 11.6914 17.3593C12.3101 16.603 12.8177 15.5741 13.4869 14.2186C13.621 13.947 13.7619 13.6628 13.9109 13.3661L14.3004 12.5754C14.9662 11.2222 15.5803 9.9744 16.3366 9.052C16.8064 8.47794 17.3564 7.9944 18.0439 7.65981C18.7314 7.32523 19.5106 7.16138 20.4077 7.16138C21.4517 7.16138 22.4807 7.40946 23.41 7.88517C24.3393 8.36089 25.1422 9.05062 25.7526 9.89753C26.3631 10.7444 26.7635 11.7243 26.9209 12.7563C27.0784 13.7883 26.9883 14.843 26.6582 15.8334C26.3281 16.8238 25.7673 17.7216 25.0221 18.4527C24.277 19.1839 23.3687 19.7275 22.3722 20.0388C21.3758 20.35 20.3196 20.4201 19.2907 20.2431C18.2619 20.0661 17.2898 19.6471 16.4546 19.0208C16.2723 18.884 16.1517 18.6804 16.1195 18.4548C16.0873 18.2292 16.146 18 16.2827 17.8176C16.4195 17.6353 16.6231 17.5147 16.8487 17.4825C17.0743 17.4503 17.3035 17.509 17.4859 17.6458C18.1032 18.1087 18.8217 18.4184 19.5821 18.5492C20.3426 18.68 21.1232 18.6283 21.8598 18.3982C22.5963 18.1681 23.2676 17.7663 23.8184 17.2259C24.3692 16.6855 24.7836 16.0219 25.0276 15.2899C25.2716 14.5579 25.3382 13.7783 25.2218 13.0155C25.1055 12.2527 24.8095 11.5285 24.3583 10.9025C23.9071 10.2765 23.3137 9.76672 22.6268 9.41511C21.94 9.06349 21.1794 8.88013 20.4077 8.88013C19.7237 8.88013 19.2103 9.00273 18.7956 9.20554C18.3808 9.40721 18.0175 9.712 17.6658 10.1405C17.047 10.8968 16.5394 11.9258 15.8702 13.2813C15.7362 13.5528 15.5952 13.837 15.4463 14.1338L15.0567 14.9244C14.391 16.2776 13.7768 17.5254 13.0206 18.449C12.5508 19.0219 12.0008 19.5054 11.3133 19.84C10.6258 20.1746 9.8466 20.3385 8.94941 20.3385C7.90549 20.3383 6.87655 20.09 5.94739 19.6142C5.01823 19.1384 4.21543 18.4486 3.60515 17.6016C2.99487 16.7547 2.59458 15.7748 2.43726 14.7428C2.27994 13.7108 2.37009 12.6562 2.7003 11.6659C3.0305 10.6756 3.59129 9.77789 4.33647 9.04682C5.08166 8.31574 5.98989 7.7722 6.98634 7.46098C7.98279 7.14976 9.03892 7.07977 10.0677 7.25678C11.0965 7.43379 12.0685 7.85273 12.9037 8.47909C12.994 8.54687 13.07 8.63178 13.1275 8.72896C13.1849 8.82614 13.2227 8.93368 13.2386 9.04546C13.2545 9.15723 13.2483 9.27104 13.2202 9.3804C13.1921 9.48975 13.1428 9.5925 13.075 9.68278C13.0072 9.77307 12.9223 9.84912 12.8251 9.90659C12.7279 9.96406 12.6204 10.0018 12.5086 10.0177C12.3968 10.0336 12.283 10.0274 12.1737 9.99929C12.0643 9.97122 11.9616 9.92187 11.8713 9.85409C11.0292 9.22024 10.0034 8.8783 8.94941 8.88013Z" fill="#0B0A0A"/>
</g>
</g>
</g>
</g>
</g>
</g>
</svg>
