<svg width="29" height="28" viewBox="0 0 29 28" fill="none" xmlns="http://www.w3.org/2000/svg">
<g id="formkit:help">
<g id="Group 5">
<path id="Vector" d="M14.7474 24.9167C8.9804 24.9167 4.28909 20.2254 4.28909 14.4583C4.28909 8.69131 8.9804 4 14.7474 4C20.5145 4 25.2058 8.69131 25.2058 14.4583C25.2058 20.2254 20.5145 24.9167 14.7474 24.9167ZM14.7474 5.49405C9.80213 5.49405 5.78314 9.51304 5.78314 14.4583C5.78314 19.4036 9.80213 23.4226 14.7474 23.4226C19.6927 23.4226 23.7117 19.4036 23.7117 14.4583C23.7117 9.51304 19.6927 5.49405 14.7474 5.49405Z" fill="#0B0A0A"/>
<path id="Vector_2" d="M14.7474 9.22925C13.089 9.22925 11.7593 10.559 11.7593 12.2173H13.2533C13.2533 11.3956 13.9256 10.7233 14.7474 10.7233C15.5691 10.7233 16.2414 11.3956 16.2414 12.2173C16.2414 13.7114 14.0003 13.5321 14.0003 15.9525H15.4944C15.4944 14.2791 17.7355 14.0849 17.7355 12.2173C17.7355 10.559 16.4058 9.22925 14.7474 9.22925Z" fill="#0B0A0A"/>
<path id="Vector_3" d="M14.7474 19.8668C15.259 19.8668 15.6737 19.4521 15.6737 18.9405C15.6737 18.4289 15.259 18.0142 14.7474 18.0142C14.2358 18.0142 13.8211 18.4289 13.8211 18.9405C13.8211 19.4521 14.2358 19.8668 14.7474 19.8668Z" fill="#0B0A0A"/>
<path id="Vector_4" d="M12.5063 12.9643C12.9189 12.9643 13.2533 12.6298 13.2533 12.2172C13.2533 11.8047 12.9189 11.4702 12.5063 11.4702C12.0937 11.4702 11.7593 11.8047 11.7593 12.2172C11.7593 12.6298 12.0937 12.9643 12.5063 12.9643Z" fill="#0B0A0A"/>
<path id="Vector_5" d="M14.7475 16.6994C15.16 16.6994 15.4945 16.3649 15.4945 15.9523C15.4945 15.5398 15.16 15.2053 14.7475 15.2053C14.3349 15.2053 14.0004 15.5398 14.0004 15.9523C14.0004 16.3649 14.3349 16.6994 14.7475 16.6994Z" fill="#0B0A0A"/>
</g>
</g>
</svg>
