<svg width="29" height="28" viewBox="0 0 29 28" fill="none" xmlns="http://www.w3.org/2000/svg">
<g id="icon-park-outline:game-emoji">
<path id="Vector" d="M22.3739 17.2455H6.41896C5.5122 17.2455 4.64258 17.6057 4.00141 18.2469C3.36024 18.8881 3.00003 19.7577 3.00003 20.6644C3.00003 21.5712 3.36024 22.4408 4.00141 23.082C4.64258 23.7232 5.5122 24.0834 6.41896 24.0834H22.3739C23.2807 24.0834 24.1503 23.7232 24.7915 23.082C25.4327 22.4408 25.7929 21.5712 25.7929 20.6644C25.7929 19.7577 25.4327 18.8881 24.7915 18.2469C24.1503 17.6057 23.2807 17.2455 22.3739 17.2455ZM21.2343 12.687C22.4433 12.687 23.6028 12.2067 24.4577 11.3518C25.3126 10.4969 25.7929 9.3374 25.7929 8.12839C25.7929 6.91938 25.3126 5.75989 24.4577 4.90499C23.6028 4.0501 22.4433 3.56982 21.2343 3.56982C20.0253 3.56982 18.8658 4.0501 18.0109 4.90499C17.156 5.75989 16.6757 6.91938 16.6757 8.12839C16.6757 9.3374 17.156 10.4969 18.0109 11.3518C18.8658 12.2067 20.0253 12.687 21.2343 12.687ZM3.00003 8.12839L8.12842 3L13.2568 8.12839L8.12842 13.2568L3.00003 8.12839Z" stroke="#0B0A0A" stroke-width="1.51567" stroke-linecap="round" stroke-linejoin="round"/>
</g>
</svg>
