<svg width="56" height="55" viewBox="0 0 56 55" fill="none" xmlns="http://www.w3.org/2000/svg">
<rect x="0.142853" width="55" height="55" rx="15.7143" fill="#F5F5F5"/>
<path d="M28.0357 16.1074C26.577 16.1074 25.1781 16.6869 24.1466 17.7183C23.1152 18.7498 22.5357 20.1487 22.5357 21.6074C22.5357 23.0661 23.1152 24.4651 24.1466 25.4965C25.1781 26.528 26.577 27.1074 28.0357 27.1074C29.4944 27.1074 30.8933 26.528 31.9248 25.4965C32.9562 24.4651 33.5357 23.0661 33.5357 21.6074C33.5357 20.1487 32.9562 18.7498 31.9248 17.7183C30.8933 16.6869 29.4944 16.1074 28.0357 16.1074ZM23.9107 21.6074C23.9107 20.5134 24.3453 19.4642 25.1189 18.6906C25.8925 17.917 26.9417 17.4824 28.0357 17.4824C29.1297 17.4824 30.1789 17.917 30.9525 18.6906C31.7261 19.4642 32.1607 20.5134 32.1607 21.6074C32.1607 22.7014 31.7261 23.7506 30.9525 24.5242C30.1789 25.2978 29.1297 25.7324 28.0357 25.7324C26.9417 25.7324 25.8925 25.2978 25.1189 24.5242C24.3453 23.7506 23.9107 22.7014 23.9107 21.6074ZM21.1731 28.4824C20.8109 28.4808 20.452 28.5507 20.1169 28.6882C19.7818 28.8257 19.4772 29.028 19.2205 29.2835C18.9638 29.539 18.7602 29.8427 18.6212 30.1772C18.4822 30.5116 18.4107 30.8702 18.4107 31.2324C18.4107 33.5575 19.5561 35.3107 21.3463 36.4533C23.1091 37.5767 25.4851 38.1074 28.0357 38.1074C30.5863 38.1074 32.9623 37.5767 34.7251 36.4533C36.5153 35.312 37.6607 33.5562 37.6607 31.2324C37.6607 30.5031 37.371 29.8036 36.8552 29.2879C36.3395 28.7722 35.64 28.4824 34.9107 28.4824H21.1731ZM19.7857 31.2324C19.7857 30.472 20.4017 29.8574 21.1731 29.8574H34.9107C35.2754 29.8574 35.6251 30.0023 35.883 30.2601C36.1408 30.518 36.2857 30.8677 36.2857 31.2324C36.2857 33.0323 35.4304 34.3729 33.9853 35.2928C32.5141 36.2319 30.4213 36.7324 28.0357 36.7324C25.6501 36.7324 23.5573 36.2319 22.0861 35.2928C20.6423 34.3715 19.7857 33.0337 19.7857 31.2324Z" fill="#0B0A0A"/>
</svg>
