<svg width="28" height="28" viewBox="0 0 28 28" fill="none" xmlns="http://www.w3.org/2000/svg">
<rect width="28" height="28" fill=""/>
<g id="Home">
<rect width="360" height="640" transform="translate(-40 -575)" fill="#F8FAED"/>
<g id="Frame 17">
<g id="fluent:person-48-regular">
<path id="Vector" d="M14 2.33325C10.7783 2.33325 8.16669 4.94484 8.16669 8.16659C8.16669 11.3883 10.7783 13.9999 14 13.9999C17.2218 13.9999 19.8334 11.3883 19.8334 8.16659C19.8334 4.94484 17.2218 2.33325 14 2.33325ZM9.62502 8.16659C9.62502 7.00627 10.086 5.89347 10.9064 5.07299C11.7269 4.25252 12.8397 3.79159 14 3.79159C15.1603 3.79159 16.2731 4.25252 17.0936 5.07299C17.9141 5.89347 18.375 7.00627 18.375 8.16659C18.375 9.32691 17.9141 10.4397 17.0936 11.2602C16.2731 12.0807 15.1603 12.5416 14 12.5416C12.8397 12.5416 11.7269 12.0807 10.9064 11.2602C10.086 10.4397 9.62502 9.32691 9.62502 8.16659ZM7.14585 16.3333C6.48844 16.3333 5.85794 16.5944 5.39302 17.0592C4.92811 17.524 4.66684 18.1544 4.66669 18.8118V19.2499C4.66669 21.4403 5.79952 23.0807 7.53669 24.1383C9.24586 25.1783 11.5419 25.6666 14 25.6666C16.4582 25.6666 18.7542 25.1783 20.4634 24.1383C22.2005 23.0807 23.3334 21.4403 23.3334 19.2499V18.8118C23.3332 18.1544 23.0719 17.524 22.607 17.0592C22.1421 16.5944 21.5116 16.3333 20.8542 16.3333H7.14585ZM6.12502 18.8118C6.12518 18.5412 6.2328 18.2817 6.42422 18.0904C6.61565 17.8991 6.87521 17.7916 7.14585 17.7916H20.8542C21.4183 17.7916 21.875 18.2483 21.875 18.8118V19.2499C21.875 20.8506 21.0817 22.0546 19.705 22.8928C18.2992 23.7486 16.2937 24.2083 14 24.2083C11.7064 24.2083 9.70086 23.7486 8.29502 22.8928C6.91835 22.0546 6.12502 20.8512 6.12502 19.2499V18.8118Z" fill="#0B0A0A"/>
</g>
</g>
</g>
</svg>
