<svg width="56" height="55" viewBox="0 0 56 55" fill="none" xmlns="http://www.w3.org/2000/svg">
<rect x="0.285706" width="55" height="55" rx="15.7143" fill="#F5F5F5"/>
<path d="M26.5335 24.4553C26.5335 23.9807 26.9182 23.5959 27.3929 23.5959C27.8675 23.5959 28.2522 23.9807 28.2522 24.4553V30.4709C28.2522 30.9456 27.8675 31.3303 27.3929 31.3303C26.9182 31.3303 26.5335 30.9456 26.5335 30.4709V24.4553ZM24.8147 16.7209C24.8147 16.2463 25.1995 15.8616 25.6741 15.8616H29.1116C29.5862 15.8616 29.971 16.2463 29.971 16.7209C29.971 17.1956 29.5862 17.5803 29.1116 17.5803H25.6741C25.1995 17.5803 24.8147 17.1956 24.8147 16.7209Z" fill="#0B0A0A"/>
<path d="M37.0952 22.4873C37.4318 22.1507 37.4309 21.6046 37.093 21.2692C36.7569 20.9354 36.2141 20.9363 35.8792 21.2713L34.5514 22.599C32.9686 20.7712 30.7425 19.6234 28.3354 19.3942C25.9284 19.165 23.5256 19.8719 21.6263 21.3682C19.7269 22.8645 18.4771 25.035 18.1364 27.4288C17.7957 29.8226 18.3904 32.2556 19.7969 34.2223C21.2035 36.1891 23.3136 37.5383 25.689 37.9897C28.0645 38.4411 30.5225 37.9599 32.5523 36.6462C34.5822 35.3324 36.0279 33.2872 36.5891 30.9352C37.1502 28.5833 36.7836 26.1057 35.5655 24.017L37.0952 22.4873ZM27.3928 36.4865C25.8631 36.4865 24.3678 36.0329 23.0959 35.1831C21.8239 34.3332 20.8326 33.1252 20.2472 31.712C19.6618 30.2987 19.5087 28.7436 19.8071 27.2433C20.1055 25.7429 20.8421 24.3648 21.9238 23.2831C23.0055 22.2015 24.3836 21.4648 25.8839 21.1664C27.3843 20.868 28.9394 21.0211 30.3527 21.6065C31.7659 22.1919 32.9739 23.1833 33.8237 24.4552C34.6736 25.7271 35.1272 27.2224 35.1272 28.7522C35.1272 30.8034 34.3124 32.7707 32.8619 34.2212C31.4114 35.6717 29.4441 36.4865 27.3928 36.4865Z" fill="#0B0A0A"/>
</svg>
